<?xml version="1.0" standalone="no"?>
<!DOCTYPE svg PUBLIC "-//W3C//DTD SVG 20010904//EN"
 "http://www.w3.org/TR/2001/REC-SVG-20010904/DTD/svg10.dtd">
<svg version="1.0" xmlns="http://www.w3.org/2000/svg"
 width="4000.000000pt" height="4000.000000pt" viewBox="0 0 4000.000000 4000.000000"
 preserveAspectRatio="xMidYMid meet">

<g transform="translate(0.000000,4000.000000) scale(0.100000,-0.100000)"
fill="#000000" stroke="none">
<path d="M26320 32497 c0 -3 58 -97 128 -209 2027 -3214 2748 -6245 2136
-8978 -524 -2337 -2003 -4477 -4409 -6375 -2664 -2102 -6526 -3918 -10892
-5123 -40 -11 -73 -19 -73 -16 0 2 206 230 458 507 2503 2751 4005 4570 4607
5578 97 163 194 348 252 483 l34 80 -1454 -1460 c-2478 -2487 -4079 -4053
-6352 -6211 -660 -626 -714 -680 -694 -687 8 -3 2262 -562 5009 -1241 2747
-680 5100 -1262 5228 -1294 127 -32 232 -57 232 -55 0 10 -261 197 -445 319
-1122 744 -2650 1422 -4595 2040 -669 212 -1287 387 -2150 608 -32 9 -49 17
-40 20 8 3 222 74 475 158 1512 498 2918 1044 4345 1687 950 427 2071 993
2922 1475 2547 1443 4543 3014 6026 4742 1556 1814 2502 3802 2791 5868 87
619 102 937 62 1347 -158 1634 -711 3145 -1676 4580 -400 596 -813 1099 -1320
1606 -238 239 -605 573 -605 551z"/>
</g>
</svg>
